<svg width="240" height="240" viewBox="0 0 640 640" fill="none" xmlns="http://www.w3.org/2000/svg" role="img" aria-label="Neodrop logo">
  <path d="M372 184.099C372 208.454 348.719 260 320 260C291.281 260 268 208.454 268 184.099C268 159.744 291.281 140 320 140C348.719 140 372 159.744 372 184.099Z" fill="#e2b878"/>
  <path d="M268 455.901C268 431.546 291.281 380 320 380C348.719 380 372 431.546 372 455.901C372 480.256 348.719 500 320 500C291.281 500 268 480.256 268 455.901Z" fill="#e2b878"/>
  <path d="M260.722 187.644C277.944 204.865 297.93 257.776 277.622 278.083C257.315 298.39 204.404 278.404 187.183 261.183C169.961 243.961 172.462 213.538 192.77 193.23C213.077 172.923 243.5 170.422 260.722 187.644Z" fill="#e2b878"/>
  <path d="M379.376 453.376C362.154 436.154 342.168 383.243 362.475 362.936C382.783 342.629 435.693 362.615 452.915 379.837C470.137 397.058 467.635 427.482 447.328 447.789C427.021 468.096 396.598 470.597 379.376 453.376Z" fill="#e2b878"/>
  <path d="M184.099 268C208.454 268 260 291.281 260 320C260 348.719 208.454 372 184.099 372C159.744 372 140 348.719 140 320C140 291.281 159.744 268 184.099 268Z" fill="#e2b878"/>
  <path d="M455.901 372C431.546 372 380 348.719 380 320C380 291.281 431.546 268 455.901 268C480.256 268 500 291.281 500 320C500 348.719 480.256 372 455.901 372Z" fill="#e2b878"/>
  <path d="M187.644 379.278C204.865 362.057 257.776 342.07 278.083 362.378C298.391 382.685 278.404 435.596 261.183 452.817C243.961 470.039 213.538 467.538 193.23 447.23C172.923 426.923 170.422 396.5 187.644 379.278Z" fill="#e2b878"/>
  <path d="M453.376 260.624C436.154 277.846 383.243 297.832 362.936 277.525C342.629 257.218 362.615 204.307 379.837 187.085C397.058 169.863 427.482 172.365 447.789 192.672C468.096 212.979 470.598 243.403 453.376 260.624Z" fill="#e2b878"/>
</svg>
